# Blender 4.3.2
# www.blender.org
o Cube
v 1.000000 1.000000 -1.000000
v 1.000000 -1.000000 -1.000000
v 1.000000 1.000000 1.000000
v 1.000000 -1.000000 1.000000
v -1.000000 1.000000 -1.000000
v -1.000000 -1.000000 -1.000000
v -1.000000 1.000000 1.000000
v -1.000000 -1.000000 1.000000
v -1.000000 -0.031212 -1.000000
v -1.000000 -0.031212 1.000000
v 1.000000 -0.031212 -1.000000
v 1.000000 1.968788 -1.000000
v -1.000000 1.968788 1.000000
v 1.000000 1.968788 1.000000
v 1.000000 -0.031212 1.000000
v -1.000000 1.968788 -1.000000
v -1.000000 0.081498 -1.000000
v -1.000000 0.081498 1.000000
v 1.000000 0.081498 -1.000000
v 1.000000 2.081498 -1.000000
v -1.000000 2.081498 1.000000
v 1.000000 2.081498 1.000000
v 1.000000 0.081498 1.000000
v -1.000000 2.081498 -1.000000
v -1.000000 0.057486 -1.000000
v -1.000000 0.057486 1.000000
v 1.000000 0.057486 -1.000000
v 1.000000 2.057486 -1.000000
v -1.000000 2.057486 1.000000
v 1.000000 2.057486 1.000000
v 1.000000 0.057486 1.000000
v -1.000000 2.057486 -1.000000
vn -0.0000 -1.0000 -0.0000
vn -0.0000 -0.0000 -1.0000
vn 1.0000 -0.0000 -0.0000
vn -0.0000 1.0000 -0.0000
vn -1.0000 -0.0000 -0.0000
vn -0.0000 -0.0000 1.0000
vt 0.000000 1.000000
vt 1.000000 1.000000
vt 1.000000 0.000000
vt 0.000000 0.000000
s 0
f 5/1/1 1/2/1 3/3/1
f 3/2/2 4/3/2 8/4/2
f 7/1/3 8/4/3 6/3/3
f 2/2/4 6/1/4 8/4/4
f 1/2/5 2/3/5 4/4/5
f 5/1/6 6/4/6 2/3/6
f 5/1/1 3/3/1 7/4/1
f 3/2/2 8/4/2 7/1/2
f 7/1/3 6/3/3 5/2/3
f 2/2/4 8/4/4 4/3/4
f 1/2/5 4/4/5 3/1/5
f 5/1/6 2/3/6 1/2/6
f 16/1/1 12/2/1 14/3/1
f 14/2/2 15/3/2 10/4/2
f 13/1/3 10/4/3 9/3/3
f 11/2/4 9/1/4 10/4/4
f 12/2/5 11/3/5 15/4/5
f 16/1/6 9/4/6 11/3/6
f 16/1/1 14/3/1 13/4/1
f 14/2/2 10/4/2 13/1/2
f 13/1/3 9/3/3 16/2/3
f 11/2/4 10/4/4 15/3/4
f 12/2/5 15/4/5 14/1/5
f 16/1/6 11/3/6 12/2/6
f 24/1/1 20/2/1 22/3/1
f 22/2/2 23/3/2 18/4/2
f 21/1/3 18/4/3 17/3/3
f 19/2/4 17/1/4 18/4/4
f 20/2/5 19/3/5 23/4/5
f 24/1/6 17/4/6 19/3/6
f 24/1/1 22/3/1 21/4/1
f 22/2/2 18/4/2 21/1/2
f 21/1/3 17/3/3 24/2/3
f 19/2/4 18/4/4 23/3/4
f 20/2/5 23/4/5 22/1/5
f 24/1/6 19/3/6 20/2/6
f 32/1/4 30/3/4 28/2/4
f 30/2/6 26/4/6 31/3/6
f 29/1/5 25/3/5 26/4/5
f 27/2/1 26/4/1 25/1/1
f 28/2/3 31/4/3 27/3/3
f 32/1/2 27/3/2 25/4/2
f 32/1/4 29/4/4 30/3/4
f 30/2/6 29/1/6 26/4/6
f 29/1/5 32/2/5 25/3/5
f 27/2/1 31/3/1 26/4/1
f 28/2/3 30/1/3 31/4/3
f 32/1/2 28/2/2 27/3/2
